<svg width="14" height="14" viewBox="0 0 14 14" fill="none" xmlns="http://www.w3.org/2000/svg">
<path fill-rule="evenodd" clip-rule="evenodd" d="M2.05059 6.18269C1.82969 6.2131 1.65942 6.40526 1.65942 6.63778C1.65942 6.89145 1.86205 7.09708 2.112 7.09708H10.0673L7.19355 10.0018L7.14962 10.0532C7.0178 10.2327 7.03188 10.4879 7.19223 10.6513C7.3686 10.831 7.65516 10.8316 7.83227 10.6526L11.4774 6.96873C11.4955 6.95109 11.5121 6.93194 11.5271 6.91148L11.5271 6.91142C11.6592 6.73133 11.6445 6.47528 11.483 6.31209L7.83224 2.62305L7.78139 2.57869C7.60393 2.44566 7.35253 2.46104 7.1922 2.62445C7.01584 2.8042 7.01645 3.09501 7.19358 3.27398L10.068 6.17849L2.112 6.17849L2.05059 6.18269Z" fill="#0075FF"/>
</svg>
