<svg width="20" height="20" viewBox="0 0 20 20" fill="none" xmlns="http://www.w3.org/2000/svg">
<path d="M14.0901 8.15728C14.383 7.86439 14.383 7.38952 14.0901 7.09662C13.7973 6.80373 13.3224 6.80373 13.0295 7.09662L8.81371 11.3124L6.97004 9.46951C6.67708 9.17668 6.20221 9.17678 5.90938 9.46973C5.61655 9.76269 5.61665 10.2376 5.9096 10.5304L8.2836 12.9034C8.57651 13.1962 9.0513 13.1961 9.34415 12.9033L14.0901 8.15728Z" fill="#130F26"/>
<path fill-rule="evenodd" clip-rule="evenodd" d="M5.66537 0C3.96907 0 2.53385 0.605621 1.52636 1.6865C0.524329 2.76152 0.000366211 4.24677 0.000366211 5.916V14.084C0.000366211 15.7523 0.52152 17.2377 1.52265 18.3131C2.52943 19.3947 3.96506 20 5.66537 20H14.3334C16.0341 20 17.4702 19.3948 18.4773 18.3133C19.4789 17.2378 20.0004 15.7524 20.0004 14.084V5.916C20.0004 4.2476 19.4789 2.76222 18.4775 1.68678C17.4705 0.605298 16.0347 0 14.3344 0H5.66537ZM1.50037 5.916C1.50037 4.55823 1.9234 3.46048 2.62362 2.70925C3.31838 1.96388 4.34066 1.5 5.66537 1.5H14.3344C15.6641 1.5 16.6862 1.9642 17.3797 2.70897C18.0788 3.45978 18.5004 4.5574 18.5004 5.916V14.084C18.5004 15.4426 18.0788 16.5402 17.3796 17.291C16.6861 18.0357 15.6636 18.5 14.3334 18.5H5.66537C4.33567 18.5 3.3138 18.0358 2.62058 17.2911C1.92171 16.5403 1.50037 15.4427 1.50037 14.084V5.916Z" fill="#130F26"/>
</svg>
