<svg width="45" height="55" viewBox="0 0 45 55" fill="none" xmlns="http://www.w3.org/2000/svg">
<path d="M43.3498 18.7514C43.0308 18.9989 37.3982 22.1727 37.3982 29.2299C37.3982 37.3927 44.5655 40.2805 44.78 40.352C44.747 40.528 43.6414 44.3069 41.0011 48.1573C38.6469 51.5457 36.1881 54.9285 32.4477 54.9285C28.7074 54.9285 27.7448 52.7558 23.4268 52.7558C19.2189 52.7558 17.7228 55 14.3014 55C10.8801 55 8.49285 51.8647 5.74808 48.0143C2.56876 43.4928 0 36.4686 0 29.802C0 19.1089 6.9527 13.4378 13.7954 13.4378C17.4312 13.4378 20.462 15.8251 22.7448 15.8251C24.9175 15.8251 28.3058 13.2948 32.4422 13.2948C34.0099 13.2948 39.6425 13.4378 43.3498 18.7514ZM30.4785 8.76788C32.1892 6.73817 33.3993 3.92189 33.3993 1.10561C33.3993 0.715071 33.3663 0.319032 33.2948 0C30.5116 0.10451 27.2002 1.85369 25.2035 4.16942C23.6359 5.95159 22.1727 8.76788 22.1727 11.6227C22.1727 12.0517 22.2442 12.4807 22.2772 12.6183C22.4532 12.6513 22.7393 12.6898 23.0253 12.6898C25.5226 12.6898 28.6634 11.0176 30.4785 8.76788Z" fill="black"/>
</svg>
